<?xml version="1.0" encoding="UTF-8"?>
<svg version="1.1" xmlns="http://www.w3.org/2000/svg" width="250" height="86">
<path d="M0 0 C3.25988872 3.13136264 5.89129303 6.16018727 8.0625 10.125 C8.0625 10.785 8.0625 11.445 8.0625 12.125 C9.37605469 12.06699219 10.68960938 12.00898438 12.04296875 11.94921875 C13.77861023 11.90230952 15.51429023 11.85681061 17.25 11.8125 C18.11431641 11.77060547 18.97863281 11.72871094 19.86914062 11.68554688 C24.41693506 11.59842438 26.40840445 11.63090501 30.14453125 14.453125 C32.0625 17.125 32.0625 17.125 32.5625 20.1875 C32.02498682 23.34538995 31.21228703 24.79606405 29.0625 27.125 C29.7225 27.62 30.3825 28.115 31.0625 28.625 C33.5122131 31.68714138 33.6492075 33.40048421 33.45703125 37.22265625 C32.84861893 40.15628795 31.45103486 41.41890367 29.0625 43.125 C26.33744953 44.03335016 24.7698121 44.23647462 21.97265625 44.23046875 C21.18826172 44.24529297 20.40386719 44.26011719 19.59570312 44.27539062 C17.95265102 44.30006888 16.30919033 44.3053722 14.66601562 44.29101562 C12.32750289 44.35432237 10.31365057 44.48229567 8.0625 45.125 C5.5982586 47.86031446 5.5982586 47.86031446 4.0625 51.125 C-1.10172307 57.34665922 -6.99928384 61.38656592 -14.9375 63.125 C-27.28189279 64.19630534 -38.21524289 63.95258515 -48.1875 55.9375 C-56.59288211 47.90569043 -60.65567089 38.92041696 -61.03125 27.19921875 C-60.32315021 14.683555 -54.81445107 6.87135216 -46.125 -1.625 C-32.15238934 -11.48801929 -13.15666797 -11.26176325 0 0 Z M-39.9375 8.125 C-40.5975 8.785 -41.2575 9.445 -41.9375 10.125 C-38.14309694 13.4730027 -36.01443209 14.4326893 -30.9375 16.125 C-31.2675 23.715 -31.5975 31.305 -31.9375 39.125 C-35.8975 41.105 -35.8975 41.105 -39.9375 43.125 C-40.2675 44.445 -40.5975 45.765 -40.9375 47.125 C-38.43686635 46.66191969 -36.91376943 46.10824901 -34.8125 44.625 C-29.92007218 42.07242897 -24.76594425 41.5293125 -19.359375 42.66796875 C-15.91516165 43.76233977 -13.51918007 44.54331993 -10.9375 47.125 C-8.82929203 46.8064823 -8.82929203 46.8064823 -6.9375 46.125 C-10.31027189 42.46313338 -12.16012802 41.03594879 -16.9375 39.125 C-17.4325 27.74 -17.4325 27.74 -17.9375 16.125 C-15.9575 15.465 -13.9775 14.805 -11.9375 14.125 C-9.10290517 11.62541345 -9.10290517 11.62541345 -6.9375 9.125 C-8.77450789 8.35257731 -8.77450789 8.35257731 -10.9375 8.125 C-11.96047922 9.10148017 -12.95654252 10.10631338 -13.9375 11.125 C-18.82315531 13.3351774 -23.65782753 13.88306108 -28.9375 13.125 C-31.1581347 12.27298564 -33.14989073 11.28084976 -35.2109375 10.09765625 C-37.08336205 8.97075775 -37.08336205 8.97075775 -39.9375 8.125 Z M14.0625 18.125 C14.0625 20.435 14.0625 22.745 14.0625 25.125 C15.52042884 25.17899736 16.97892712 25.21779177 18.4375 25.25 C19.65566406 25.28480469 19.65566406 25.28480469 20.8984375 25.3203125 C23.27592243 25.33870051 23.27592243 25.33870051 25.0625 23.125 C24.74208603 20.52219432 24.74208603 20.52219432 24.0625 18.125 C20.7625 18.125 17.4625 18.125 14.0625 18.125 Z M14.0625 30.125 C14.0625 32.765 14.0625 35.405 14.0625 38.125 C15.68713842 38.17895478 17.31228541 38.21777195 18.9375 38.25 C19.84242187 38.27320313 20.74734375 38.29640625 21.6796875 38.3203125 C24.25056994 38.36824836 24.25056994 38.36824836 26.0625 36.125 C25.89742354 33.54959787 25.89742354 33.54959787 25.0625 31.125 C22.65704362 29.92227181 21.11253047 30.02428528 18.4375 30.0625 C17.62023437 30.07152344 16.80296875 30.08054688 15.9609375 30.08984375 C15.33445312 30.10144531 14.70796875 30.11304688 14.0625 30.125 Z " fill="#FF0B00" transform="translate(67.9375,15.875)"/>
<path d="M0 0 C2.31 0 4.62 0 7 0 C7.33 0.66 7.66 1.32 8 2 C8.66 1.34 9.32 0.68 10 0 C12.625 -0.125 12.625 -0.125 15 0 C15.33 0.99 15.66 1.98 16 3 C16.61875 2.505 17.2375 2.01 17.875 1.5 C22.28475744 -0.61668357 26.19106054 -0.8373393 31 0 C34.61884168 1.89662185 36.68786858 4.06360575 38 8 C38.34231315 13.30585376 38.53140599 16.73795828 35 21 C31.56119481 23.84929573 28.53787772 24.54260642 24.0625 24.34765625 C20.26856843 23.70814884 18.08459319 22.34429083 15 20 C12.57496161 15.45305301 13.00714173 11.96429135 14 7 C10.70924004 7.37904208 10.70924004 7.37904208 8 9 C7.76346477 11.52596259 7.57826308 14.03107207 7.4375 16.5625 C7.39431641 17.27341797 7.35113281 17.98433594 7.30664062 18.71679688 C7.20028223 20.47761912 7.09961154 22.2387832 7 24 C4.69 24 2.38 24 0 24 C0 16.08 0 8.16 0 0 Z M21.0625 7.625 C19.63510637 10.81564458 20.06156734 12.67939213 21 16 C22.88659875 18.30662599 22.88659875 18.30662599 26 18.3125 C26.99 18.209375 27.98 18.10625 29 18 C31.31332486 14.53001271 31.33957563 13.07490752 31 9 C30.34 8.01 29.68 7.02 29 6 C25.54023217 5.48471543 23.79329276 5.33465769 21.0625 7.625 Z " fill="#FF3737" transform="translate(103,36)"/>
<path d="M0 0 C6 0 6 0 8 1 C10.3400417 0.71758117 12.67504723 0.38749213 15 0 C15.33 0.66 15.66 1.32 16 2 C16.556875 1.67773438 17.11375 1.35546875 17.6875 1.0234375 C21.65712324 -0.733389 25.74596959 -0.60771863 30 0 C32.625 2 32.625 2 34 4 C33.34 4.99 32.68 5.98 32 7 C28.7 6.67 25.4 6.34 22 6 C22.80510653 8.18391411 22.80510653 8.18391411 24.9609375 8.7109375 C25.75757813 8.93007813 26.55421875 9.14921875 27.375 9.375 C30.20260788 10.28001462 31.8454649 10.86819065 34.125 12.8125 C35.39387674 15.98469184 35.09395108 17.78651871 34 21 C30.95437757 23.94737655 28.08015565 24.22906299 24 24.375 C19.90437536 24.26496829 17.27824101 23.6225928 14 21 C14.66 19.35 15.32 17.7 16 16 C16.886875 16.33 17.77375 16.66 18.6875 17 C21.70923347 17.91222143 23.88373706 18.18330958 27 18 C27 17.34 27 16.68 27 16 C23.37 14.68 19.74 13.36 16 12 C15.67 10.02 15.34 8.04 15 6 C11.535 7.485 11.535 7.485 8 9 C7.67 13.95 7.34 18.9 7 24 C4.69 24 2.38 24 0 24 C0 16.08 0 8.16 0 0 Z " fill="#FF3636" transform="translate(208,36)"/>
<path d="M0 0 C3.06398451 -0.13530844 6.12197126 -0.2342407 9.1875 -0.3125 C10.05181641 -0.35439453 10.91613281 -0.39628906 11.80664062 -0.43945312 C16.35443506 -0.52657562 18.34590445 -0.49409499 22.08203125 2.328125 C24 5 24 5 24.5 8.0625 C23.96248682 11.22038995 23.14978703 12.67106405 21 15 C21.66 15.495 22.32 15.99 23 16.5 C25.4497131 19.56214138 25.5867075 21.27548421 25.39453125 25.09765625 C24.78611893 28.03128795 23.38853486 29.29390367 21 31 C18.23434618 31.92188461 16.61716298 32.11785222 13.76953125 32.09765625 C12.96708984 32.09443359 12.16464844 32.09121094 11.33789062 32.08789062 C10.50451172 32.07951172 9.67113281 32.07113281 8.8125 32.0625 C7.5450293 32.05573242 7.5450293 32.05573242 6.25195312 32.04882812 C4.16793845 32.03705403 2.08396023 32.0191189 0 32 C0.33 30.845 0.66 29.69 1 28.5 C2.00801219 23.96394514 2.22429561 19.50607462 2.25 14.875 C2.25902344 14.20662109 2.26804687 13.53824219 2.27734375 12.84960938 C2.24975432 8.18239757 1.43583338 4.38726865 0 0 Z M6 6 C6 8.31 6 10.62 6 13 C7.45792884 13.05399736 8.91642712 13.09279177 10.375 13.125 C11.59316406 13.15980469 11.59316406 13.15980469 12.8359375 13.1953125 C15.21342243 13.21370051 15.21342243 13.21370051 17 11 C16.67958603 8.39719432 16.67958603 8.39719432 16 6 C12.7 6 9.4 6 6 6 Z M6 18 C6 20.64 6 23.28 6 26 C7.62463842 26.05395478 9.24978541 26.09277195 10.875 26.125 C11.77992187 26.14820313 12.68484375 26.17140625 13.6171875 26.1953125 C16.18806994 26.24324836 16.18806994 26.24324836 18 24 C17.83492354 21.42459787 17.83492354 21.42459787 17 19 C14.59454362 17.79727181 13.05003047 17.89928528 10.375 17.9375 C9.55773437 17.94652344 8.74046875 17.95554687 7.8984375 17.96484375 C7.27195312 17.97644531 6.64546875 17.98804687 6 18 Z " fill="#FF3636" transform="translate(76,28)"/>
<path d="M0 0 C2.31 0 4.62 0 7 0 C7.33 3.63 7.66 7.26 8 11 C8.66 10.34 9.32 9.68 10 9 C12.05859375 8.69921875 12.05859375 8.69921875 14.4375 8.6875 C15.61119141 8.66236328 15.61119141 8.66236328 16.80859375 8.63671875 C19.5744569 9.09523082 20.29579769 9.8006212 22 12 C22.34057617 14.26831055 22.34057617 14.26831055 22.29296875 16.88671875 C22.28330078 17.82451172 22.27363281 18.76230469 22.26367188 19.72851562 C22.23853516 20.70498047 22.21339844 21.68144531 22.1875 22.6875 C22.16719727 24.16959961 22.16719727 24.16959961 22.14648438 25.68164062 C22.11112203 28.12164231 22.06177033 30.56054719 22 33 C20.02 33 18.04 33 16 33 C15.93941406 32.02417969 15.87882813 31.04835938 15.81640625 30.04296875 C15.69072266 28.13451172 15.69072266 28.13451172 15.5625 26.1875 C15.48128906 24.92292969 15.40007812 23.65835938 15.31640625 22.35546875 C15.12815453 19.00818107 15.12815453 19.00818107 14 16 C10.70924004 16.37904208 10.70924004 16.37904208 8 18 C7.76346477 20.52596259 7.57826308 23.03107207 7.4375 25.5625 C7.39431641 26.27341797 7.35113281 26.98433594 7.30664062 27.71679688 C7.20028223 29.47761912 7.09961154 31.2387832 7 33 C4.69 33 2.38 33 0 33 C0 22.11 0 11.22 0 0 Z " fill="#FF3737" transform="translate(158,27)"/>
<path d="M0 0 C3.62111248 1.74589352 5.40433339 2.94404555 7.375 6.4375 C8 9 8 9 8 14 C-0.415 14.495 -0.415 14.495 -9 15 C-8.01 16.485 -8.01 16.485 -7 18 C-3.41642759 18.25015873 -3.41642759 18.25015873 0 18 C0 17.34 0 16.68 0 16 C1.98 16.33 3.96 16.66 6 17 C4.52866521 21.65922684 4.52866521 21.65922684 2.23046875 23.140625 C-1.77258561 24.68295768 -5.78554661 24.56010564 -10 24 C-13.49996383 21.95835443 -15.80555258 19.90910064 -17 16 C-17.42543885 10.63947052 -17.47662684 7.34578355 -14 3 C-9.64497484 -0.88370209 -5.60373654 -0.79548311 0 0 Z M-10 8 C-10 8.66 -10 9.32 -10 10 C-6.37 10 -2.74 10 1 10 C-0.1375562 7.40858714 -0.1375562 7.40858714 -2 5 C-5.79476397 4.24104721 -7.71438754 4.87231979 -10 8 Z " fill="#FF3636" transform="translate(199,36)"/>
<path d="M0 0 C2.31 0 4.62 0 7 0 C7 2.31 7 4.62 7 7 C8.65 7 10.3 7 12 7 C12 8.65 12 10.3 12 12 C10.35 12 8.7 12 7 12 C7 16.29 7 20.58 7 25 C8.65 24.67 10.3 24.34 12 24 C12.33 25.98 12.66 27.96 13 30 C9.88450128 31.55774936 6.3955612 31.56480622 3 31 C1.2578125 29.99609375 1.2578125 29.99609375 0 28 C-0.21714241 25.18872957 -0.28284276 22.6116655 -0.1875 19.8125 C-0.16719727 18.68811523 -0.16719727 18.68811523 -0.14648438 17.54101562 C-0.11118539 15.69370233 -0.05737917 13.84675934 0 12 C-0.99 12 -1.98 12 -3 12 C-3 10.35 -3 8.7 -3 7 C-2.01 7 -1.02 7 0 7 C0 4.69 0 2.38 0 0 Z " fill="#FF3636" transform="translate(144,29)"/>
<path d="M0 0 C2.31 0 4.62 0 7 0 C7 6.93 7 13.86 7 21 C4.69 21 2.38 21 0 21 C0 14.07 0 7.14 0 0 Z " fill="#FF0C00" transform="translate(40,33)"/>
</svg>
